<svg width="32" height="32" viewBox="0 0 32 32" fill="none" xmlns="http://www.w3.org/2000/svg">
  <defs>
    <!-- Gradient for background -->
    <radialGradient id="bgGradient" cx="0.5" cy="0.3" r="0.9">
      <stop offset="0%" stop-color="#8b5cf6"/>
      <stop offset="70%" stop-color="#5b21b6"/>
      <stop offset="100%" stop-color="#1e1b4b"/>
    </radialGradient>
    
    <!-- Gradient for moon -->
    <linearGradient id="moonGradient" x1="0" y1="0" x2="1" y2="1">
      <stop offset="0%" stop-color="#fbbf24"/>
      <stop offset="100%" stop-color="#f59e0b"/>
    </linearGradient>
    
    <!-- Glow effect -->
    <filter id="glow" x="-50%" y="-50%" width="200%" height="200%">
      <feGaussianBlur stdDeviation="1.5" result="coloredBlur"/>
      <feMerge> 
        <feMergeNode in="coloredBlur"/>
        <feMergeNode in="SourceGraphic"/>
      </feMerge>
    </filter>
    
    <!-- Star glow -->
    <filter id="starGlow" x="-100%" y="-100%" width="300%" height="300%">
      <feGaussianBlur stdDeviation="0.8" result="coloredBlur"/>
      <feMerge> 
        <feMergeNode in="coloredBlur"/>
        <feMergeNode in="SourceGraphic"/>
      </feMerge>
    </filter>
  </defs>
  
  <!-- Background circle -->
  <circle cx="16" cy="16" r="16" fill="url(#bgGradient)"/>
  
  <!-- Crescent Moon -->
  <path d="M11 5c-6 0-11 5-11 11s5 11 11 11c1.8 0 3.5-0.4 5-1.1-3.8-1.7-6.5-5.6-6.5-10s2.7-8.3 6.5-10C14.5 5.4 12.8 5 11 5z" 
        fill="url(#moonGradient)" 
        filter="url(#glow)"
        opacity="0.95"/>
  
  <!-- Moon surface details -->
  <ellipse cx="9" cy="12" rx="0.8" ry="0.6" fill="#f59e0b" opacity="0.3"/>
  <ellipse cx="12" cy="18" rx="0.6" ry="0.4" fill="#f59e0b" opacity="0.2"/>
  <ellipse cx="8" cy="20" rx="0.4" ry="0.3" fill="#f59e0b" opacity="0.25"/>
  
  <!-- Stars with different sizes -->
  <circle cx="23" cy="7" r="1.2" fill="#fbbf24" filter="url(#starGlow)" opacity="0.9"/>
  <circle cx="27" cy="11" r="0.8" fill="#fbbf24" filter="url(#starGlow)" opacity="0.8"/>
  <circle cx="25" cy="22" r="0.6" fill="#fbbf24" filter="url(#starGlow)" opacity="0.7"/>
  <circle cx="6" cy="26" r="0.7" fill="#fbbf24" filter="url(#starGlow)" opacity="0.8"/>
  <circle cx="28" cy="18" r="0.5" fill="#fbbf24" filter="url(#starGlow)" opacity="0.6"/>
  
  <!-- Sparkle crosses -->
  <g fill="#fbbf24" opacity="0.8">
    <path d="M21 9l1.5 3 3-1.5-3-1.5L21 9z"/>
    <path d="M9 23l1 2 2-1-2-1L9 23z"/>
    <path d="M26 15l0.8 1.6 1.6-0.8-1.6-0.8L26 15z"/>
  </g>
  
  <!-- Subtle constellation lines -->
  <g stroke="#fbbf24" stroke-width="0.3" opacity="0.3" fill="none">
    <line x1="23" y1="7" x2="27" y2="11"/>
    <line x1="27" y1="11" x2="28" y2="18"/>
  </g>
</svg>